<svg xmlns="http://www.w3.org/2000/svg" viewBox="0 0 64 64">
  <defs>
    <linearGradient id="g" x1="0" y1="0" x2="1" y2="1">
      <stop offset="0%" stop-color="#10b981"/>
      <stop offset="100%" stop-color="#0ea5e9"/>
    </linearGradient>
  </defs>
  <rect width="64" height="64" rx="14" fill="url(#g)"/>
  <path d="M32 14c-5 0-8 2.5-11 2.5-3.5 0-6-2-8.5-.2-2.6 1.9-3 6.2-2.1 10.7 1 5 3.2 11.5 5.3 16.8 1.5 3.8 2.7 7 5 7 2.4 0 3-2.8 4.6-6.4 1.4-3.3 3-6.2 4.7-6.2 1.7 0 3.3 2.9 4.7 6.2 1.6 3.6 2.2 6.4 4.6 6.4 2.3 0 3.5-3.2 5-7 2.1-5.3 4.3-11.8 5.3-16.8.9-4.5.5-8.8-2.1-10.7-2.5-1.8-5 .2-8.5.2-3 0-6-2.5-11-2.5z" fill="#ffffff"/>
</svg>
